# xmcd
#
# Track frame offsets: 
#        150
#        14622
#        26440
#        46330
#        60167
#        78195
#        89015
#        102490
#        114970
#        127037
#        148427
#        161292
#        185550
#        204705
#        218959
#        240192
#        253542
#
# Disc length: 3765 seconds
#
# Revision: 3
# Processed by: cddbd v1.5.1PL0 Copyright (c) Steve Scherf et al.
# Submitted via: ExactAudioCopy v0.90b4
#
DISCID=e80eb311
DTITLE=Various Artist - Soul Deep
DYEAR=1900
DGENRE=
TTITLE0=Marvin Gaye - I Heard It Through The Grapevine
TTITLE1=The Temptations - Get Ready
TTITLE2=Aretha Franklin - Jimmy Lee
TTITLE3=The Four Tops - Bernadette
TTITLE4=Kane Gang - Respect Yourself
TTITLE5=Sly and The Family Stone - Everyday People
TTITLE6=The O'Jays - Love Train
TTITLE7=Mary Wells - My Guy
TTITLE8=Martha and The Vandellas - Dancing In The Street
TTITLE9=Billy Paul - Me and Mr Jones
TTITLE10=The Isley Brothers - This Ole Heart of Mine (Is Weak For You)
TTITLE11=Sly and The Family Stone - I Want To Take You Higher
TTITLE12=Grayson Hugh - Talk It Over
TTITLE13=The O'Jays - Backstabbers
TTITLE14=Gladys Knight and The Pips - Midnight Train To Georgia
TTITLE15=Percy Sledge - When A Man Loves A Woman
TTITLE16=The Style Council - Money-Go-Round - Medley
EXTD=
EXTT0=
EXTT1=
EXTT2=
EXTT3=
EXTT4=
EXTT5=
EXTT6=
EXTT7=
EXTT8=
EXTT9=
EXTT10=
EXTT11=
EXTT12=
EXTT13=
EXTT14=
EXTT15=
EXTT16=
PLAYORDER=
